<?xml version="1.0" encoding="utf-8"?>
<svg viewBox="34.81 -156.963 97.45 74.9" width="97.45" height="74.9"
	xmlns="http://www.w3.org/2000/svg">
	<g>
		<path stroke="none" fill="#CBCBCB"
			d="M 80.51 -154.963 L 79.81 -154.963 L 73.96 -142.013 L 73.71 -141.663 L 72.26 -143.063 L 78.01 -155.763 C 78.143 -156.129 78.393 -156.413 78.76 -156.613 C 79.06 -156.846 79.41 -156.963 79.81 -156.963 L 80.51 -156.963 L 80.51 -154.963 M 61.06 -93.413 L 70.41 -84.063 L 94.66 -84.063 L 104.01 -93.413 L 104.86 -91.413 L 96.11 -82.613 C 95.71 -82.246 95.227 -82.063 94.66 -82.063 L 70.41 -82.063 C 69.843 -82.063 69.377 -82.246 69.01 -82.613 L 60.21 -91.413 L 61.06 -93.413 M 91.11 -142.013 L 85.26 -154.963 L 84.56 -154.963 L 84.56 -156.963 L 85.26 -156.963 C 85.66 -156.963 86.027 -156.846 86.36 -156.613 L 87.11 -155.763 L 92.81 -143.063 L 91.11 -142.013"
			transform="matrix(1, 0, 0, 1, 1, -2.842170943040401e-14)" />
		<path stroke="none" fill="#F2F2F2"
			d="M 91.11 -142.013 L 110.21 -99.613 L 106.76 -96.163 L 104.01 -93.413 L 94.66 -84.063 L 70.41 -84.063 L 61.06 -93.413 L 58.31 -96.163 L 54.86 -99.613 L 73.96 -142.013 L 79.81 -154.963 L 80.51 -154.963 L 64.06 -103.013 L 70.56 -91.263 L 94.51 -91.263 L 101.01 -103.013 L 84.56 -154.963 L 85.26 -154.963 L 91.11 -142.013"
			transform="matrix(1, 0, 0, 1, 1, -2.842170943040401e-14)" />
		<path stroke="none"
			d="M 80.51 -154.963 L 80.51 -156.963 L 84.56 -156.963 L 84.56 -154.963 L 80.51 -154.963 M 126.21 -103.663 L 130.81 -98.213 C 131.11 -97.846 131.26 -97.413 131.26 -96.913 L 131.26 -92.213 C 131.26 -91.646 131.077 -91.163 130.71 -90.763 C 130.31 -90.396 129.827 -90.213 129.26 -90.213 L 124.01 -90.213 L 123.71 -90.213 L 124.01 -92.213 L 129.26 -92.213 L 129.26 -96.913 L 125.66 -101.163 L 126.21 -103.663 M 41.46 -90.263 L 41.06 -90.213 L 35.81 -90.213 C 35.243 -90.213 34.777 -90.396 34.41 -90.763 C 34.01 -91.163 33.81 -91.646 33.81 -92.213 L 33.81 -96.913 C 33.81 -97.413 33.977 -97.846 34.31 -98.213 L 38.81 -103.513 L 39.41 -101.163 L 35.81 -96.913 L 35.81 -92.213 L 41.06 -92.213 L 41.46 -90.263"
			style="fill: rgb(172, 91, 190);"
			transform="matrix(1, 0, 0, 1, 1, -2.842170943040401e-14)" />
		<path stroke="none"
			d="M 84.56 -154.963 L 101.01 -103.013 L 94.51 -91.263 L 70.56 -91.263 L 64.06 -103.013 L 80.51 -154.963 L 84.56 -154.963 M 73.86 -123.913 L 73.51 -122.913 L 91.56 -122.913 L 91.26 -123.913 L 84.86 -146.163 L 80.26 -146.163 L 73.81 -123.913 L 73.86 -123.913 M 124.76 -96.163 L 125.66 -101.163 L 129.26 -96.913 L 129.26 -92.213 L 124.01 -92.213 L 124.26 -93.413 L 124.76 -96.163 M 40.81 -93.413 L 41.06 -92.213 L 35.81 -92.213 L 35.81 -96.913 L 39.41 -101.163 L 40.31 -96.163 L 40.81 -93.413"
			style="fill: rgb(211, 142, 226);"
			transform="matrix(1, 0, 0, 1, 1, -2.842170943040401e-14)" />
		<path stroke="none" fill="#8EA8AD"
			d="M 72.26 -143.063 L 73.71 -141.663 L 66.71 -133.413 L 39.41 -101.163 L 38.81 -103.513 L 72.26 -143.063 M 91.11 -142.013 L 92.81 -143.063 L 126.21 -103.663 L 125.66 -101.163 L 98.36 -133.413 L 91.11 -142.013"
			transform="matrix(1, 0, 0, 1, 1, -2.842170943040401e-14)" />
		<path stroke="none" fill="#BDD6DB"
			d="M 91.11 -142.013 L 98.36 -133.413 L 114.51 -99.763 L 110.91 -96.163 L 106.76 -96.163 L 110.21 -99.613 L 91.11 -142.013 M 73.71 -141.663 L 73.96 -142.013 L 54.86 -99.613 L 58.31 -96.163 L 54.16 -96.163 L 50.56 -99.763 L 66.71 -133.413 L 73.71 -141.663"
			transform="matrix(1, 0, 0, 1, 1, -2.842170943040401e-14)" />
		<path stroke="none" fill="#4A3C55"
			d="M 91.26 -123.913 L 91.56 -122.913 L 73.51 -122.913 L 73.86 -123.913 L 80.26 -144.163 L 84.86 -144.163 L 91.26 -123.913"
			transform="matrix(1, 0, 0, 1, 1, -2.842170943040401e-14)" />
		<path stroke="none"
			d="M 91.26 -123.913 L 84.86 -144.163 L 80.26 -144.163 L 73.86 -123.913 L 73.81 -123.913 L 80.26 -146.163 L 84.86 -146.163 L 91.26 -123.913"
			style="fill: rgb(160, 0, 194);"
			transform="matrix(1, 0, 0, 1, 1, -2.842170943040401e-14)" />
		<path stroke="none" fill="#D3E1E7"
			d="M 98.36 -133.413 L 125.66 -101.163 L 124.76 -96.163 L 110.91 -96.163 L 114.51 -99.763 L 98.36 -133.413 M 39.41 -101.163 L 66.71 -133.413 L 50.56 -99.763 L 54.16 -96.163 L 40.31 -96.163 L 39.41 -101.163"
			transform="matrix(1, 0, 0, 1, 1, -2.842170943040401e-14)" />
		<path stroke="none"
			d="M 123.71 -90.213 L 122.91 -90.563 L 122.21 -91.413 L 104.86 -91.413 L 104.01 -93.413 L 108.16 -93.413 L 124.26 -93.413 L 124.01 -92.213 L 123.71 -90.213 M 60.21 -91.413 L 42.91 -91.413 L 42.16 -90.563 L 41.46 -90.263 L 41.06 -92.213 L 40.81 -93.413 L 56.91 -93.413 L 61.06 -93.413 L 60.21 -91.413"
			style="fill: rgb(120, 74, 148);"
			transform="matrix(1, 0, 0, 1, 1, -2.842170943040401e-14)" />
		<path stroke="none"
			d="M 58.31 -96.163 L 61.06 -93.413 L 56.91 -93.413 L 54.16 -96.163 L 58.31 -96.163 M 104.01 -93.413 L 106.76 -96.163 L 110.91 -96.163 L 108.16 -93.413 L 104.01 -93.413"
			style="fill: rgb(162, 78, 203);"
			transform="matrix(1, 0, 0, 1, 1, -2.842170943040401e-14)" />
		<path stroke="none"
			d="M 110.91 -96.163 L 124.76 -96.163 L 124.26 -93.413 L 108.16 -93.413 L 110.91 -96.163 M 56.91 -93.413 L 40.81 -93.413 L 40.31 -96.163 L 54.16 -96.163 L 56.91 -93.413"
			style="fill: rgb(169, 132, 198);"
			transform="matrix(1, 0, 0, 1, 1, -2.842170943040401e-14)" />
	</g>
</svg>
