<?xml version="1.0"?>
<svg width="100" height="100" xmlns="http://www.w3.org/2000/svg"
	xmlns:svg="http://www.w3.org/2000/svg">
	<g class="layer">
		<title>Layer 1</title>
		<g id="svg_57"
			transform="translate(-2 -1.33333) rotate(-8.46349 39.7713 42.9274) matrix(0.846429 -0.532503 0.532503 0.846429 42.0678 183.857)">
			<g id="svg_58"
				transform="translate(-1.33333 2) translate(2.33333 -7.66667) matrix(1 0 0 1 -10.4333 4.66667)">
				<path
					d="m80.51,-154.96l-0.7,0l-5.85,12.95l-0.25,0.35l-1.45,-1.4l5.75,-12.7c0.13,-0.37 0.38,-0.65 0.75,-0.85c0.3,-0.24 0.65,-0.35 1.05,-0.35l0.7,0l0,2m-19.45,61.55l9.35,9.35l24.25,0l9.35,-9.35l0.85,2l-8.75,8.8c-0.4,0.36 -0.88,0.55 -1.45,0.55l-24.25,0c-0.57,0 -1.03,-0.19 -1.4,-0.55l-8.8,-8.8l0.85,-2m30.05,-48.6l-5.85,-12.95l-0.7,0l0,-2l0.7,0c0.4,0 0.77,0.11 1.1,0.35l0.75,0.85l5.7,12.7l-1.7,1.05"
					fill="#CBCBCB" id="svg_59" />
				<path
					d="m91.11,-142.01l19.1,42.4l-3.45,3.45l-2.75,2.75l-9.35,9.35l-24.25,0l-9.35,-9.35l-2.75,-2.75l-3.45,-3.45l19.1,-42.4l5.85,-12.95l0.7,0l-16.45,51.95l6.5,11.75l23.95,0l6.5,-11.75l-16.45,-51.95l0.7,0l5.85,12.95"
					fill="#F2F2F2" id="svg_60" />
				<path
					d="m80.51,-154.96l0,-2l4.05,0l0,2l-4.05,0m45.7,51.3l4.6,5.45c0.3,0.36 0.45,0.8 0.45,1.3l0,4.7c0,0.56 -0.18,1.05 -0.55,1.45c-0.4,0.36 -0.88,0.55 -1.45,0.55l-5.25,0l-0.3,0l0.3,-2l5.25,0l0,-4.7l-3.6,-4.25l0.55,-2.5m-84.75,13.4l-0.4,0.05l-5.25,0c-0.57,0 -1.03,-0.19 -1.4,-0.55c-0.4,-0.4 -0.6,-0.89 -0.6,-1.45l0,-4.7c0,-0.5 0.17,-0.94 0.5,-1.3l4.5,-5.3l0.6,2.35l-3.6,4.25l0,4.7l5.25,0l0.4,1.95"
					fill="rgb(172, 91, 190)" id="svg_61" />
				<path
					d="m84.56,-154.96l16.45,51.95l-6.5,11.75l-23.95,0l-6.5,-11.75l16.45,-51.95l4.05,0m-10.7,31.05l-0.35,1l18.05,0l-0.3,-1l-6.4,-22.25l-4.6,0l-6.45,22.25l0.05,0m50.9,27.75l0.9,-5l3.6,4.25l0,4.7l-5.25,0l0.25,-1.2l0.5,-2.75m-83.95,2.75l0.25,1.2l-5.25,0l0,-4.7l3.6,-4.25l0.9,5l0.5,2.75"
					fill="rgb(211, 142, 226)" id="svg_62" />
				<path
					d="m72.26,-143.06l1.45,1.4l-7,8.25l-27.3,32.25l-0.6,-2.35l33.45,-39.55m18.85,1.05l1.7,-1.05l33.4,39.4l-0.55,2.5l-27.3,-32.25l-7.25,-8.6"
					fill="#8EA8AD" id="svg_63" />
				<path
					d="m91.11,-142.01l7.25,8.6l16.15,33.65l-3.6,3.6l-4.15,0l3.45,-3.45l-19.1,-42.4m-17.4,0.35l0.25,-0.35l-19.1,42.4l3.45,3.45l-4.15,0l-3.6,-3.6l16.15,-33.65l7,-8.25"
					fill="#BDD6DB" id="svg_64" />
				<path d="m91.26,-123.91l0.3,1l-18.05,0l0.35,-1l6.4,-20.25l4.6,0l6.4,20.25"
					fill="#4A3C55" id="svg_65" />
				<path
					d="m91.26,-123.91l-6.4,-20.25l-4.6,0l-6.4,20.25l-0.05,0l6.45,-22.25l4.6,0l6.4,22.25"
					fill="rgb(160, 0, 194)" id="svg_66" />
				<path
					d="m98.36,-133.41l27.3,32.25l-0.9,5l-13.85,0l3.6,-3.6l-16.15,-33.65m-58.95,32.25l27.3,-32.25l-16.15,33.65l3.6,3.6l-13.85,0l-0.9,-5"
					fill="#D3E1E7" id="svg_67" />
				<path
					d="m123.71,-90.21l-0.8,-0.35l-0.7,-0.85l-17.35,0l-0.85,-2l4.15,0l16.1,0l-0.25,1.2l-0.3,2m-63.5,-1.2l-17.3,0l-0.75,0.85l-0.7,0.3l-0.4,-1.95l-0.25,-1.2l16.1,0l4.15,0l-0.85,2"
					fill="rgb(120, 74, 148)" id="svg_68" />
				<path
					d="m58.31,-96.16l2.75,2.75l-4.15,0l-2.75,-2.75l4.15,0m45.7,2.75l2.75,-2.75l4.15,0l-2.75,2.75l-4.15,0"
					fill="rgb(162, 78, 203)" id="svg_69" />
				<path
					d="m110.91,-96.16l13.85,0l-0.5,2.75l-16.1,0l2.75,-2.75m-54,2.75l-16.1,0l-0.5,-2.75l13.85,0l2.75,2.75"
					fill="rgb(169, 132, 198)" id="svg_70" />
			</g>
		</g>
	</g>
</svg>
